<?xml version="1.0" encoding="iso-8859-1"?>
<!-- Generator: Adobe Illustrator 23.0.5, SVG Export Plug-In . SVG Version: 6.00 Build 0)  -->
<svg version="1.1" xmlns="http://www.w3.org/2000/svg" xmlns:xlink="http://www.w3.org/1999/xlink" x="0px" y="0px"
	 viewBox="0 0 2400 1080" style="enable-background:new 0 0 2400 1080;" xml:space="preserve">
<g id="Layer_1">
	<rect style="fill:#003381;" width="2400" height="1081"/>
	<path style="fill:#172C4B;" d="M1594.945,1081c0,0,270.542-292,805.055-218v218H1594.945z"/>
	<path style="fill:#172C4B;" d="M297,1081c0,0,914.586-530,1957.323-1L297,1081z"/>
	<path style="fill:#172C4B;" d="M0,952c0,0,480.484,17,713.219,129H0V952z"/>
	<path style="fill:#172C4B;" d="M1319.02,849.532L1318.927,806h-17.525l10.953-31l26.835-17.5h175.25l21.906,14l5.477-47h-19.716
		l21.906-31l47.098-37l42.717,34c0,0,24.097,34,25.192,34s0,0,0,0s-18.62,4-18.62,19s4.381,44,4.381,44l4.381,29l13.144,37h-15.334
		l2.191,29C1649.163,882.5,1405.095,841.564,1319.02,849.532z"/>
	<path style="fill:#172C4B;" d="M309.699,1033.015l-0.067-26.389H297l7.895-18.792l19.342-10.608h126.318l15.79,8.487l3.947-28.491
		h-14.211l15.79-18.792L505.82,916l30.79,20.611c0,0,17.369,20.611,18.158,20.611s0,0,0,0s-13.421,2.425-13.421,11.518
		c0,9.093,3.158,26.673,3.158,26.673l3.158,17.58l9.474,22.429h-11.053l1.579,17.58C547.663,1053,371.741,1028.185,309.699,1033.015
		z"/>
	<path style="fill:#172C4B;" d="M1661.315,971.015l-0.067-26.389h-12.632l7.895-18.792l19.343-10.608h126.318l15.79,8.487
		l3.948-28.491h-14.211l15.79-18.792L1857.436,854l30.79,20.611c0,0,17.369,20.611,18.158,20.611c0.789,0,0,0,0,0
		s-13.421,2.425-13.421,11.518c0,9.093,3.158,26.673,3.158,26.673l3.158,17.58l9.474,22.429h-11.053l1.579,17.58
		C1899.278,991,1723.357,966.185,1661.315,971.015z"/>
	<path style="fill:#172C4B;" d="M914.312,877.015l-0.067-26.389h-12.632l7.895-18.792l19.342-10.608h126.318l15.79,8.487
		l3.947-28.491h-14.211l15.79-18.792L1110.432,760l30.79,20.611c0,0,17.369,20.611,18.158,20.611c0.79,0,0,0,0,0
		s-13.421,2.425-13.421,11.518c0,9.093,3.158,26.673,3.158,26.673l3.158,17.58l9.474,22.429h-11.053l1.579,17.58
		C1152.275,897,976.354,872.185,914.312,877.015z"/>
	<polygon style="fill:#172C4B;stroke:#172C4B;stroke-width:1.0466;stroke-miterlimit:10;" points="2156.293,776.5 2111.385,776.5 
		2156.293,724.5 2214.344,688.5 2253.776,724.5 2278.968,764.5 2253.776,769.5 2270.206,868.5 2131.101,868.5 	"/>
	<g>
		<path style="fill:#172C4B;" d="M870.626,731.911c-0.681,0.06-1.39,0.175-2.099,0.175c-5.369,0.011-10.733-0.022-16.102,0.004
			c-1.488,0.007-2.507-0.227-1.708-2.002c-3.954,0-7.753-0.022-11.552,0.019c-0.579,0.007-1.186,0.234-1.724,0.473
			c-7.138,3.167-14.247,6.386-21.413,9.505c-1.582,0.689-2.095,1.585-2.091,3.163c0.041,40.931,0.033,81.861,0.033,122.792v2.106
			h4.019v3.067c-0.114-0.06-0.228-0.119-0.346-0.182c-0.428,0.592-1.231,1.176-1.235,1.768c-0.073,12.274-0.057,24.552-0.057,36.934
			c0.616,0.104,1.174,0.201,1.81,0.313v2.676h-12.934v-2.694c0.518-0.082,1.092-0.171,1.753-0.275
			c0.049-0.186,0.167-0.421,0.167-0.651c0.033-12.092,0.061-24.187,0.041-36.279c0-0.461-0.624-0.893-0.787-1.388
			c-0.322-0.99-0.53-2.013-0.799-3.085c0.62-0.104,0.872-0.175,1.129-0.186c3.514-0.182,3.534-0.182,3.538-3.532
			c0.02-19.535,0.098-39.07,0.037-58.605c-0.065-20.03-0.273-40.06-0.416-60.09c-0.008-0.93-0.061-1.865,0.02-2.791
			c0.24-2.735,1.247-4.887,4.317-6.167c7.529-3.13,14.932-6.524,22.42-9.743c0.872-0.372,1.965-0.435,2.955-0.439
			c8.63-0.019,17.255,0.019,25.881,0.026C868.824,726.824,870.618,728.506,870.626,731.911z"/>
	</g>
	<g>
		<path style="fill:#172C4B;" d="M1349.8,629.651c-1.017,0.089-2.076,0.261-3.136,0.261c-8.019,0.017-16.032-0.033-24.051,0.006
			c-2.222,0.011-3.745-0.339-2.551-2.991c-5.906,0-11.581-0.033-17.256,0.028c-0.865,0.011-1.772,0.35-2.576,0.706
			c-10.661,4.731-21.28,9.539-31.984,14.197c-2.362,1.028-3.13,2.368-3.124,4.725c0.061,61.137,0.049,122.274,0.049,183.411v3.146
			h6.004v4.581c-0.171-0.089-0.341-0.178-0.518-0.272c-0.639,0.884-1.839,1.757-1.845,2.641c-0.11,18.333-0.085,36.672-0.085,55.167
			c0.919,0.156,1.754,0.3,2.703,0.467v3.997h-19.32v-4.025c0.773-0.122,1.632-0.256,2.618-0.411c0.073-0.278,0.25-0.628,0.25-0.973
			c0.049-18.061,0.091-36.127,0.061-54.188c0-0.689-0.932-1.334-1.175-2.073c-0.481-1.479-0.792-3.007-1.193-4.608
			c0.926-0.156,1.303-0.261,1.687-0.278c5.249-0.272,5.279-0.272,5.285-5.275c0.03-29.179,0.146-58.358,0.055-87.536
			c-0.097-29.918-0.408-59.836-0.621-89.754c-0.012-1.39-0.091-2.785,0.031-4.169c0.359-4.086,1.863-7.299,6.448-9.211
			c11.246-4.675,22.303-9.745,33.488-14.553c1.303-0.556,2.935-0.65,4.414-0.656c12.89-0.028,25.774,0.028,38.658,0.039
			C1347.109,622.052,1349.788,624.565,1349.8,629.651z"/>
	</g>
	<g>
		<path style="fill:#172C4B;" d="M1832.833,814.546c-0.471,0.041-0.962,0.121-1.453,0.121c-3.717,0.008-7.431-0.016-11.147,0.003
			c-1.03,0.005-1.736-0.157-1.182-1.386c-2.737,0-5.368-0.015-7.998,0.013c-0.401,0.005-0.821,0.162-1.194,0.327
			c-4.941,2.193-9.863,4.421-14.824,6.58c-1.095,0.477-1.45,1.098-1.448,2.19c0.028,28.336,0.023,56.673,0.023,85.009v1.458h2.782
			v2.123c-0.079-0.041-0.158-0.082-0.24-0.126c-0.296,0.41-0.852,0.814-0.855,1.224c-0.051,8.497-0.039,16.997-0.039,25.569
			c0.426,0.072,0.813,0.139,1.253,0.216v1.852h-8.954v-1.865c0.358-0.057,0.756-0.119,1.214-0.191
			c0.034-0.129,0.116-0.291,0.116-0.451c0.023-8.371,0.042-16.745,0.028-25.116c0-0.32-0.432-0.618-0.545-0.961
			c-0.223-0.685-0.367-1.394-0.553-2.136c0.429-0.072,0.604-0.121,0.782-0.129c2.433-0.126,2.447-0.126,2.45-2.445
			c0.014-13.524,0.068-27.048,0.025-40.572c-0.045-13.867-0.189-27.733-0.288-41.6c-0.006-0.644-0.042-1.291,0.014-1.932
			c0.167-1.894,0.864-3.383,2.989-4.269c5.212-2.167,10.337-4.517,15.521-6.745c0.604-0.258,1.36-0.301,2.046-0.304
			c5.974-0.013,11.946,0.013,17.917,0.018C1831.586,811.024,1832.828,812.189,1832.833,814.546z"/>
	</g>
	<path style="fill:#172C4B;" d="M49.315,986.015l-0.067-26.389H36.616l7.895-18.792l19.342-10.608h126.318l15.79,8.487l3.947-28.491
		h-14.211l15.79-18.792L245.436,869l30.79,20.611c0,0,17.369,20.611,18.158,20.611s0,0,0,0s-13.421,2.425-13.421,11.518
		c0,9.093,3.158,26.673,3.158,26.673l3.158,17.58l9.474,22.429h-11.053l1.579,17.58C287.278,1006,111.357,981.185,49.315,986.015z"
		/>
	<g>
		<path style="fill:#172C4B;" d="M149.833,878.546c-0.471,0.041-0.962,0.121-1.453,0.121c-3.717,0.008-7.43-0.016-11.147,0.003
			c-1.03,0.005-1.736-0.157-1.182-1.386c-2.737,0-5.368-0.015-7.998,0.013c-0.401,0.005-0.821,0.162-1.194,0.327
			c-4.941,2.193-9.863,4.421-14.824,6.58c-1.095,0.477-1.451,1.098-1.448,2.19c0.028,28.336,0.023,56.673,0.023,85.009v1.458h2.783
			v2.123c-0.079-0.041-0.158-0.082-0.24-0.126c-0.296,0.41-0.852,0.814-0.855,1.224c-0.051,8.497-0.04,16.997-0.04,25.569
			c0.426,0.072,0.813,0.139,1.253,0.216v1.852h-8.954v-1.865c0.358-0.057,0.756-0.119,1.213-0.191
			c0.034-0.129,0.116-0.291,0.116-0.451c0.023-8.371,0.042-16.745,0.028-25.116c0-0.32-0.432-0.618-0.545-0.961
			c-0.223-0.685-0.367-1.394-0.553-2.136c0.429-0.072,0.604-0.121,0.782-0.129c2.433-0.126,2.447-0.126,2.45-2.445
			c0.014-13.524,0.068-27.048,0.025-40.572c-0.045-13.867-0.189-27.733-0.288-41.6c-0.006-0.644-0.042-1.291,0.014-1.932
			c0.166-1.894,0.864-3.383,2.989-4.269c5.212-2.167,10.337-4.517,15.521-6.745c0.604-0.258,1.36-0.301,2.046-0.304
			c5.974-0.013,11.946,0.013,17.917,0.018C148.586,875.024,149.828,876.189,149.833,878.546z"/>
	</g>
	<g>
		<path style="fill:#172C4B;" d="M2303.613,707.911c0.681,0.06,1.39,0.175,2.099,0.175c5.368,0.011,10.733-0.022,16.102,0.004
			c1.488,0.007,2.507-0.227,1.708-2.002c3.954,0,7.753-0.022,11.552,0.019c0.579,0.007,1.186,0.234,1.724,0.473
			c7.138,3.167,14.247,6.386,21.413,9.505c1.582,0.689,2.095,1.585,2.091,3.163c-0.041,40.931-0.033,81.861-0.033,122.792v2.106
			h-4.019v3.067c0.114-0.06,0.228-0.119,0.347-0.182c0.428,0.592,1.231,1.176,1.235,1.768c0.073,12.274,0.057,24.552,0.057,36.934
			c-0.615,0.104-1.174,0.201-1.81,0.313v2.676h12.934v-2.694c-0.518-0.082-1.093-0.171-1.753-0.275
			c-0.049-0.186-0.167-0.421-0.167-0.651c-0.033-12.092-0.061-24.187-0.041-36.279c0-0.461,0.624-0.893,0.787-1.388
			c0.322-0.99,0.53-2.013,0.799-3.085c-0.62-0.104-0.872-0.175-1.129-0.186c-3.514-0.182-3.534-0.182-3.538-3.532
			c-0.021-19.535-0.098-39.07-0.037-58.605c0.065-20.03,0.273-40.06,0.416-60.09c0.008-0.93,0.061-1.865-0.021-2.791
			c-0.24-2.735-1.247-4.887-4.317-6.167c-7.529-3.13-14.932-6.524-22.42-9.743c-0.872-0.372-1.965-0.435-2.955-0.439
			c-8.63-0.019-17.255,0.019-25.881,0.026C2305.414,702.824,2303.621,704.506,2303.613,707.911z"/>
	</g>
	<g>
		<path style="fill:#172C4B;" d="M476.314,868.959c-0.526,0.046-1.074,0.135-1.623,0.135c-4.15,0.009-8.296-0.017-12.446,0.003
			c-1.15,0.006-1.938-0.175-1.32-1.548c-3.056,0-5.993-0.017-8.93,0.014c-0.447,0.006-0.917,0.181-1.333,0.365
			c-5.517,2.448-11.012,4.936-16.552,7.347c-1.223,0.532-1.62,1.226-1.616,2.445c0.031,31.638,0.025,63.277,0.025,94.915v1.628
			h3.107v2.37c-0.088-0.046-0.176-0.092-0.268-0.141c-0.331,0.457-0.952,0.909-0.955,1.366c-0.057,9.487-0.044,18.978-0.044,28.549
			c0.476,0.081,0.907,0.155,1.399,0.242v2.068h-9.998v-2.083c0.4-0.063,0.844-0.132,1.355-0.213
			c0.038-0.144,0.129-0.325,0.129-0.503c0.025-9.346,0.047-18.696,0.032-28.042c0-0.357-0.482-0.69-0.608-1.073
			c-0.249-0.765-0.41-1.556-0.618-2.385c0.479-0.081,0.674-0.135,0.873-0.144c2.716-0.141,2.732-0.141,2.735-2.73
			c0.016-15.1,0.076-30.2,0.028-45.3c-0.05-15.483-0.211-30.965-0.321-46.448c-0.006-0.719-0.047-1.441,0.016-2.158
			c0.186-2.114,0.964-3.777,3.337-4.767c5.82-2.419,11.542-5.043,17.33-7.531c0.674-0.288,1.519-0.337,2.284-0.339
			c6.671-0.014,13.338,0.014,20.005,0.02C474.921,865.027,476.307,866.327,476.314,868.959z"/>
	</g>
	<g>
		<g>
			<path style="fill:#FFFFFF;" d="M1417.458,473.549c2.02,0,2.024-3.14,0-3.14C1415.438,470.409,1415.434,473.549,1417.458,473.549
				L1417.458,473.549z"/>
		</g>
	</g>
	<g>
		<g>
			<path style="fill:#FFFFFF;" d="M1379.705,468.187c2.02,0,2.024-3.14,0-3.14C1377.684,465.047,1377.681,468.187,1379.705,468.187
				L1379.705,468.187z"/>
		</g>
	</g>
	<g>
		<g>
			<path style="fill:#FFFFFF;" d="M1297.486,403.846c2.02,0,2.024-3.14,0-3.14C1295.466,400.707,1295.463,403.846,1297.486,403.846
				L1297.486,403.846z"/>
		</g>
	</g>
	<g>
		<g>
			<path style="fill:#FFFFFF;" d="M1232.047,472.783c2.02,0,2.024-3.14,0-3.14C1230.027,469.643,1230.024,472.783,1232.047,472.783
				L1232.047,472.783z"/>
		</g>
	</g>
	<g>
		<g>
			<path style="fill:#FFFFFF;" d="M1290.775,511.081c2.02,0,2.024-3.14,0-3.14C1288.754,507.941,1288.751,511.081,1290.775,511.081
				L1290.775,511.081z"/>
		</g>
	</g>
	<g>
		<g>
			<path style="fill:#FFFFFF;" d="M1155.702,465.123c2.02,0,2.024-3.14,0-3.14C1153.681,461.983,1153.678,465.123,1155.702,465.123
				L1155.702,465.123z"/>
		</g>
	</g>
	<g>
		<g>
			<path style="fill:#FFFFFF;" d="M1108.72,524.868c2.02,0,2.024-3.14,0-3.14C1106.699,521.728,1106.696,524.868,1108.72,524.868
				L1108.72,524.868z"/>
		</g>
	</g>
	<g>
		<g>
			<path style="fill:#FFFFFF;" d="M1228.691,541.719c2.02,0,2.024-3.14,0-3.14C1226.671,538.579,1226.668,541.719,1228.691,541.719
				L1228.691,541.719z"/>
		</g>
	</g>
	<g>
		<g>
			<path style="fill:#FFFFFF;" d="M1138.083,600.698c2.02,0,2.024-3.14,0-3.14C1136.063,597.558,1136.06,600.698,1138.083,600.698
				L1138.083,600.698z"/>
		</g>
	</g>
	<g>
		<g>
			<path style="fill:#FFFFFF;" d="M1017.273,537.889c2.02,0,2.024-3.14,0-3.14C1015.253,534.749,1015.249,537.889,1017.273,537.889
				L1017.273,537.889z"/>
		</g>
	</g>
	<g>
		<g>
			<path style="fill:#FFFFFF;" d="M1023.146,421.463c2.02,0,2.024-3.14,0-3.14C1021.125,418.324,1021.122,421.463,1023.146,421.463
				L1023.146,421.463z"/>
		</g>
	</g>
	<g>
		<g>
			<path style="fill:#FFFFFF;" d="M924.987,547.846c2.02,0,2.024-3.14,0-3.14C922.967,544.707,922.963,547.846,924.987,547.846
				L924.987,547.846z"/>
		</g>
	</g>
	<g>
		<g>
			<path style="fill:#FFFFFF;" d="M1000.494,614.485c2.02,0,2.024-3.14,0-3.14C998.473,611.345,998.47,614.485,1000.494,614.485
				L1000.494,614.485z"/>
		</g>
	</g>
	<g>
		<g>
			<path style="fill:#FFFFFF;" d="M980.358,693.378c2.02,0,2.024-3.14,0-3.14C978.338,690.239,978.335,693.378,980.358,693.378
				L980.358,693.378z"/>
		</g>
	</g>
	<g>
		<g>
			<path style="fill:#FFFFFF;" d="M931.699,787.591c2.02,0,2.024-3.14,0-3.14C929.678,784.451,929.675,787.591,931.699,787.591
				L931.699,787.591z"/>
		</g>
	</g>
	<g>
		<g>
			<path style="fill:#FFFFFF;" d="M916.597,757.719c2.02,0,2.024-3.14,0-3.14C914.577,754.579,914.574,757.719,916.597,757.719
				L916.597,757.719z"/>
		</g>
	</g>
	<g>
		<g>
			<path style="fill:#FFFFFF;" d="M870.454,830.485c2.02,0,2.024-3.14,0-3.14C868.434,827.345,868.431,830.485,870.454,830.485
				L870.454,830.485z"/>
		</g>
	</g>
	<g>
		<g>
			<path style="fill:#FFFFFF;" d="M1086.068,755.421c2.02,0,2.024-3.14,0-3.14C1084.047,752.281,1084.044,755.421,1086.068,755.421
				L1086.068,755.421z"/>
		</g>
	</g>
	<g>
		<g>
			<path style="fill:#FFFFFF;" d="M1175.837,665.804c2.02,0,2.024-3.14,0-3.14C1173.817,662.664,1173.813,665.804,1175.837,665.804
				L1175.837,665.804z"/>
		</g>
	</g>
	<g>
		<g>
			<path style="fill:#FFFFFF;" d="M1211.073,740.868c2.02,0,2.024-3.14,0-3.14C1209.053,737.728,1209.05,740.868,1211.073,740.868
				L1211.073,740.868z"/>
		</g>
	</g>
	<g>
		<g>
			<path style="fill:#FFFFFF;" d="M1362.087,678.825c2.02,0,2.024-3.14,0-3.14C1360.066,675.685,1360.063,678.825,1362.087,678.825
				L1362.087,678.825z"/>
		</g>
	</g>
	<g>
		<g>
			<path style="fill:#FFFFFF;" d="M1294.13,751.591c2.02,0,2.024-3.14,0-3.14C1292.11,748.451,1292.107,751.591,1294.13,751.591
				L1294.13,751.591z"/>
		</g>
	</g>
	<g>
		<g>
			<path style="fill:#FFFFFF;" d="M1319.299,691.081c2.02,0,2.024-3.14,0-3.14C1317.279,687.941,1317.276,691.081,1319.299,691.081
				L1319.299,691.081z"/>
		</g>
	</g>
	<g>
		<g>
			<path style="fill:#FFFFFF;" d="M723.916,349.208c2.02,0,2.024-3.14,0-3.14C721.895,346.068,721.892,349.208,723.916,349.208
				L723.916,349.208z"/>
		</g>
	</g>
	<g>
		<g>
			<path style="fill:#FFFFFF;" d="M652.324,463.591c2.02,0,2.024-3.14,0-3.14C650.304,460.451,650.3,463.591,652.324,463.591
				L652.324,463.591z"/>
		</g>
	</g>
	<g>
		<g>
			<path style="fill:#FFFFFF;" d="M795.507,422.74c2.02,0,2.024-3.14,0-3.14C793.487,419.6,793.483,422.74,795.507,422.74
				L795.507,422.74z"/>
		</g>
	</g>
	<g>
		<g>
			<path style="fill:#FFFFFF;" d="M531.513,318.57c2.02,0,2.024-3.14,0-3.14C529.493,315.43,529.49,318.57,531.513,318.57
				L531.513,318.57z"/>
		</g>
	</g>
	<g>
		<g>
			<path style="fill:#FFFFFF;" d="M750.762,212.357c2.02,0,2.024-3.14,0-3.14C748.742,209.217,748.739,212.357,750.762,212.357
				L750.762,212.357z"/>
		</g>
	</g>
	<g>
		<g>
			<path style="fill:#FFFFFF;" d="M600.868,224.612c2.02,0,2.024-3.14,0-3.14C598.847,221.473,598.844,224.612,600.868,224.612
				L600.868,224.612z"/>
		</g>
	</g>
	<g>
		<g>
			<path style="fill:#FFFFFF;" d="M616.528,251.166c2.02,0,2.024-3.14,0-3.14C614.508,248.026,614.505,251.166,616.528,251.166
				L616.528,251.166z"/>
		</g>
	</g>
	<g>
		<g>
			<path style="fill:#FFFFFF;" d="M553.886,404.357c2.02,0,2.024-3.14,0-3.14C551.865,401.217,551.862,404.357,553.886,404.357
				L553.886,404.357z"/>
		</g>
	</g>
	<g>
		<g>
			<path style="fill:#FFFFFF;" d="M764.186,296.102c2.02,0,2.024-3.14,0-3.14C762.165,292.962,762.162,296.102,764.186,296.102
				L764.186,296.102z"/>
		</g>
	</g>
	<g>
		<g>
			<path style="fill:#FFFFFF;" d="M643.375,524.868c2.02,0,2.024-3.14,0-3.14C641.355,521.728,641.352,524.868,643.375,524.868
				L643.375,524.868z"/>
		</g>
	</g>
	<g>
		<g>
			<path style="fill:#FFFFFF;" d="M459.922,588.187c2.02,0,2.024-3.14,0-3.14C457.902,585.047,457.898,588.187,459.922,588.187
				L459.922,588.187z"/>
		</g>
	</g>
	<g>
		<g>
			<path style="fill:#FFFFFF;" d="M670.222,637.208c2.02,0,2.024-3.14,0-3.14C668.202,634.068,668.198,637.208,670.222,637.208
				L670.222,637.208z"/>
		</g>
	</g>
	<g>
		<g>
			<path style="fill:#FFFFFF;" d="M459.922,702.57c2.02,0,2.024-3.14,0-3.14C457.902,699.43,457.898,702.57,459.922,702.57
				L459.922,702.57z"/>
		</g>
	</g>
	<g>
		<g>
			<path style="fill:#FFFFFF;" d="M551.648,616.783c2.02,0,2.024-3.14,0-3.14C549.628,613.643,549.625,616.783,551.648,616.783
				L551.648,616.783z"/>
		</g>
	</g>
	<g>
		<g>
			<path style="fill:#FFFFFF;" d="M497.955,498.315c2.02,0,2.024-3.14,0-3.14C495.935,495.175,495.931,498.315,497.955,498.315
				L497.955,498.315z"/>
		</g>
	</g>
	<g>
		<g>
			<path style="fill:#FFFFFF;" d="M406.228,622.91c2.02,0,2.024-3.14,0-3.14C404.208,619.771,404.205,622.91,406.228,622.91
				L406.228,622.91z"/>
		</g>
	</g>
	<g>
		<g>
			<path style="fill:#FFFFFF;" d="M383.856,743.421c2.02,0,2.024-3.14,0-3.14C381.836,740.281,381.832,743.421,383.856,743.421
				L383.856,743.421z"/>
		</g>
	</g>
	<g>
		<g>
			<path style="fill:#FFFFFF;" d="M473.345,741.378c2.02,0,2.024-3.14,0-3.14C471.325,738.239,471.322,741.378,473.345,741.378
				L473.345,741.378z"/>
		</g>
	</g>
	<g>
		<g>
			<path style="fill:#FFFFFF;" d="M621.003,855.761c2.02,0,2.024-3.14,0-3.14C618.982,852.622,618.979,855.761,621.003,855.761
				L621.003,855.761z"/>
		</g>
	</g>
	<g>
		<g>
			<path style="fill:#FFFFFF;" d="M531.513,767.932c2.02,0,2.024-3.14,0-3.14C529.493,764.792,529.49,767.932,531.513,767.932
				L531.513,767.932z"/>
		</g>
	</g>
	<g>
		<g>
			<path style="fill:#FFFFFF;" d="M312.264,890.485c2.02,0,2.024-3.14,0-3.14C310.244,887.345,310.241,890.485,312.264,890.485
				L312.264,890.485z"/>
		</g>
	</g>
	<g>
		<g>
			<path style="fill:#FFFFFF;" d="M603.105,839.421c2.02,0,2.024-3.14,0-3.14C601.085,836.281,601.081,839.421,603.105,839.421
				L603.105,839.421z"/>
		</g>
	</g>
	<g>
		<g>
			<path style="fill:#FFFFFF;" d="M719.441,755.676c2.02,0,2.024-3.14,0-3.14C717.421,752.536,717.417,755.676,719.441,755.676
				L719.441,755.676z"/>
		</g>
	</g>
	<g>
		<g>
			<path style="fill:#FFFFFF;" d="M799.982,592.272c2.02,0,2.024-3.14,0-3.14C797.961,589.132,797.958,592.272,799.982,592.272
				L799.982,592.272z"/>
		</g>
	</g>
	<g>
		<g>
			<path style="fill:#FFFFFF;" d="M694.831,584.102c2.02,0,2.024-3.14,0-3.14C692.811,580.962,692.808,584.102,694.831,584.102
				L694.831,584.102z"/>
		</g>
	</g>
	<g>
		<g>
			<path style="fill:#FFFFFF;" d="M777.609,700.527c2.02,0,2.024-3.14,0-3.14C775.589,697.388,775.586,700.527,777.609,700.527
				L777.609,700.527z"/>
		</g>
	</g>
	<g>
		<g>
			<path style="fill:#FFFFFF;" d="M596.393,720.953c2.02,0,2.024-3.14,0-3.14C594.373,717.813,594.37,720.953,596.393,720.953
				L596.393,720.953z"/>
		</g>
	</g>
	<g>
		<g>
			<path style="fill:#FFFFFF;" d="M475.583,326.74c2.02,0,2.024-3.14,0-3.14C473.562,323.6,473.559,326.74,475.583,326.74
				L475.583,326.74z"/>
		</g>
	</g>
	<g>
		<g>
			<path style="fill:#FFFFFF;" d="M426.363,416.612c2.02,0,2.024-3.14,0-3.14C424.343,413.473,424.34,416.612,426.363,416.612
				L426.363,416.612z"/>
		</g>
	</g>
	<g>
		<g>
			<path style="fill:#FFFFFF;" d="M444.261,232.783c2.02,0,2.024-3.14,0-3.14C442.241,229.643,442.238,232.783,444.261,232.783
				L444.261,232.783z"/>
		</g>
	</g>
	<g>
		<g>
			<path style="fill:#FFFFFF;" d="M744.051,257.293c2.02,0,2.024-3.14,0-3.14C742.03,254.154,742.027,257.293,744.051,257.293
				L744.051,257.293z"/>
		</g>
	</g>
	<g>
		<g>
			<path style="fill:#FFFFFF;" d="M654.561,144.953c2.02,0,2.024-3.14,0-3.14C652.541,141.813,652.538,144.953,654.561,144.953
				L654.561,144.953z"/>
		</g>
	</g>
	<g>
		<g>
			<path style="fill:#FFFFFF;" d="M547.174,132.698c2.02,0,2.024-3.14,0-3.14C545.154,129.558,545.15,132.698,547.174,132.698
				L547.174,132.698z"/>
		</g>
	</g>
	<g>
		<g>
			<path style="fill:#FFFFFF;" d="M397.279,206.229c2.02,0,2.024-3.14,0-3.14C395.259,203.09,395.256,206.229,397.279,206.229
				L397.279,206.229z"/>
		</g>
	</g>
	<g>
		<g>
			<path style="fill:#FFFFFF;" d="M388.33,347.166c2.02,0,2.024-3.14,0-3.14C386.31,344.026,386.307,347.166,388.33,347.166
				L388.33,347.166z"/>
		</g>
	</g>
	<g>
		<g>
			<path style="fill:#FFFFFF;" d="M350.297,477.889c2.02,0,2.024-3.14,0-3.14C348.277,474.749,348.274,477.889,350.297,477.889
				L350.297,477.889z"/>
		</g>
	</g>
	<g>
		<g>
			<path style="fill:#FFFFFF;" d="M1178.074,193.974c2.02,0,2.024-3.14,0-3.14C1176.054,190.834,1176.05,193.974,1178.074,193.974
				L1178.074,193.974z"/>
		</g>
	</g>
	<g>
		<g>
			<path style="fill:#FFFFFF;" d="M1126.618,314.485c2.02,0,2.024-3.14,0-3.14C1124.597,311.345,1124.594,314.485,1126.618,314.485
				L1126.618,314.485z"/>
		</g>
	</g>
	<g>
		<g>
			<path style="fill:#FFFFFF;" d="M1077.399,271.591c2.02,0,2.024-3.14,0-3.14C1075.378,268.451,1075.375,271.591,1077.399,271.591
				L1077.399,271.591z"/>
		</g>
	</g>
	<g>
		<g>
			<path style="fill:#FFFFFF;" d="M1008.044,292.017c2.02,0,2.024-3.14,0-3.14C1006.024,288.877,1006.021,292.017,1008.044,292.017
				L1008.044,292.017z"/>
		</g>
	</g>
	<g>
		<g>
			<path style="fill:#FFFFFF;" d="M862.624,420.698c2.02,0,2.024-3.14,0-3.14C860.604,417.558,860.6,420.698,862.624,420.698
				L862.624,420.698z"/>
		</g>
	</g>
	<g>
		<g>
			<path style="fill:#FFFFFF;" d="M878.285,328.783c2.02,0,2.024-3.14,0-3.14C876.264,325.643,876.261,328.783,878.285,328.783
				L878.285,328.783z"/>
		</g>
	</g>
	<g>
		<g>
			<path style="fill:#FFFFFF;" d="M1072.924,402.315c2.02,0,2.024-3.14,0-3.14C1070.904,399.175,1070.9,402.315,1072.924,402.315
				L1072.924,402.315z"/>
		</g>
	</g>
	<g>
		<g>
			<path style="fill:#FFFFFF;" d="M1220.582,353.293c2.02,0,2.024-3.14,0-3.14C1218.561,350.154,1218.558,353.293,1220.582,353.293
				L1220.582,353.293z"/>
		</g>
	</g>
	<g>
		<g>
			<path style="fill:#FFFFFF;" d="M1556.167,255.251c2.02,0,2.024-3.14,0-3.14C1554.146,252.111,1554.143,255.251,1556.167,255.251
				L1556.167,255.251z"/>
		</g>
	</g>
	<g>
		<g>
			<path style="fill:#FFFFFF;" d="M1245.191,157.208c2.02,0,2.024-3.14,0-3.14C1243.171,154.068,1243.167,157.208,1245.191,157.208
				L1245.191,157.208z"/>
		</g>
	</g>
	<g>
		<g>
			<path style="fill:#FFFFFF;" d="M1014.756,204.187c2.02,0,2.024-3.14,0-3.14C1012.736,201.047,1012.732,204.187,1014.756,204.187
				L1014.756,204.187z"/>
		</g>
	</g>
	<g>
		<g>
			<path style="fill:#FFFFFF;" d="M1097.534,79.591c2.02,0,2.024-3.14,0-3.14C1095.513,76.451,1095.51,79.591,1097.534,79.591
				L1097.534,79.591z"/>
		</g>
	</g>
	<g>
		<g>
			<path style="fill:#FFFFFF;" d="M842.489,106.144c2.02,0,2.024-3.14,0-3.14C840.469,103.005,840.465,106.144,842.489,106.144
				L842.489,106.144z"/>
		</g>
	</g>
	<g>
		<g>
			<path style="fill:#FFFFFF;" d="M831.303,212.357c2.02,0,2.024-3.14,0-3.14C829.283,209.217,829.279,212.357,831.303,212.357
				L831.303,212.357z"/>
		</g>
	</g>
	<g>
		<g>
			<path style="fill:#FFFFFF;" d="M692.594,22.4c2.02,0,2.024-3.14,0-3.14C690.574,19.26,690.571,22.4,692.594,22.4L692.594,22.4z"
				/>
		</g>
	</g>
	<g>
		<g>
			<path style="fill:#FFFFFF;" d="M535.988,53.038c2.02,0,2.024-3.14,0-3.14C533.968,49.898,533.964,53.038,535.988,53.038
				L535.988,53.038z"/>
		</g>
	</g>
	<g>
		<g>
			<path style="fill:#FFFFFF;" d="M408.466,24.442c2.02,0,2.024-3.14,0-3.14C406.445,21.302,406.442,24.442,408.466,24.442
				L408.466,24.442z"/>
		</g>
	</g>
	<g>
		<g>
			<path style="fill:#FFFFFF;" d="M450.973,128.612c2.02,0,2.024-3.14,0-3.14C448.953,125.473,448.949,128.612,450.973,128.612
				L450.973,128.612z"/>
		</g>
	</g>
	<g>
		<g>
			<path style="fill:#FFFFFF;" d="M755.237,132.698c2.02,0,2.024-3.14,0-3.14C753.217,129.558,753.213,132.698,755.237,132.698
				L755.237,132.698z"/>
		</g>
	</g>
	<g>
		<g>
			<path style="fill:#FFFFFF;" d="M963.3,189.889c2.02,0,2.024-3.14,0-3.14C961.279,186.749,961.276,189.889,963.3,189.889
				L963.3,189.889z"/>
		</g>
	</g>
	<g>
		<g>
			<path style="fill:#FFFFFF;" d="M1359.29,153.123c2.02,0,2.024-3.14,0-3.14C1357.27,149.983,1357.266,153.123,1359.29,153.123
				L1359.29,153.123z"/>
		</g>
	</g>
	<g>
		<g>
			<path style="fill:#FFFFFF;" d="M1352.578,338.995c2.02,0,2.024-3.14,0-3.14C1350.558,335.856,1350.555,338.995,1352.578,338.995
				L1352.578,338.995z"/>
		</g>
	</g>
	<g>
		<g>
			<path style="fill:#FFFFFF;" d="M1455.491,373.719c2.02,0,2.024-3.14,0-3.14C1453.471,370.579,1453.467,373.719,1455.491,373.719
				L1455.491,373.719z"/>
		</g>
	</g>
	<g>
		<g>
			<path style="fill:#FFFFFF;" d="M1471.152,222.57c2.02,0,2.024-3.14,0-3.14C1469.131,219.43,1469.128,222.57,1471.152,222.57
				L1471.152,222.57z"/>
		</g>
	</g>
	<g>
		<g>
			<path style="fill:#FFFFFF;" d="M1723.959,345.123c2.02,0,2.024-3.14,0-3.14C1721.939,341.983,1721.936,345.123,1723.959,345.123
				L1723.959,345.123z"/>
		</g>
	</g>
	<g>
		<g>
			<path style="fill:#FFFFFF;" d="M1994.664,306.315c2.02,0,2.024-3.14,0-3.14C1992.644,303.175,1992.641,306.315,1994.664,306.315
				L1994.664,306.315z"/>
		</g>
	</g>
	<g>
		<g>
			<path style="fill:#FFFFFF;" d="M1869.379,439.081c2.02,0,2.024-3.14,0-3.14C1867.359,435.941,1867.356,439.081,1869.379,439.081
				L1869.379,439.081z"/>
		</g>
	</g>
	<g>
		<g>
			<path style="fill:#FFFFFF;" d="M1900.701,353.293c2.02,0,2.024-3.14,0-3.14C1898.68,350.154,1898.677,353.293,1900.701,353.293
				L1900.701,353.293z"/>
		</g>
	</g>
	<g>
		<g>
			<path style="fill:#FFFFFF;" d="M1536.031,512.612c2.02,0,2.024-3.14,0-3.14C1534.011,509.473,1534.008,512.612,1536.031,512.612
				L1536.031,512.612z"/>
		</g>
	</g>
	<g>
		<g>
			<path style="fill:#FFFFFF;" d="M1565.115,471.761c2.02,0,2.024-3.14,0-3.14C1563.095,468.622,1563.092,471.761,1565.115,471.761
				L1565.115,471.761z"/>
		</g>
	</g>
	<g>
		<g>
			<path style="fill:#FFFFFF;" d="M1643.419,502.4c2.02,0,2.024-3.14,0-3.14C1641.398,499.26,1641.395,502.4,1643.419,502.4
				L1643.419,502.4z"/>
		</g>
	</g>
	<g>
		<g>
			<path style="fill:#FFFFFF;" d="M1685.926,477.889c2.02,0,2.024-3.14,0-3.14C1683.906,474.749,1683.903,477.889,1685.926,477.889
				L1685.926,477.889z"/>
		</g>
	</g>
	<g>
		<g>
			<path style="fill:#FFFFFF;" d="M1788.839,518.74c2.02,0,2.024-3.14,0-3.14C1786.819,515.6,1786.815,518.74,1788.839,518.74
				L1788.839,518.74z"/>
		</g>
	</g>
	<g>
		<g>
			<path style="fill:#FFFFFF;" d="M1788.839,631.081c2.02,0,2.024-3.14,0-3.14C1786.819,627.941,1786.815,631.081,1788.839,631.081
				L1788.839,631.081z"/>
		</g>
	</g>
	<g>
		<g>
			<path style="fill:#FFFFFF;" d="M1748.569,712.783c2.02,0,2.024-3.14,0-3.14C1746.548,709.643,1746.545,712.783,1748.569,712.783
				L1748.569,712.783z"/>
		</g>
	</g>
	<g>
		<g>
			<path style="fill:#FFFFFF;" d="M1808.974,716.868c2.02,0,2.024-3.14,0-3.14C1806.954,713.728,1806.95,716.868,1808.974,716.868
				L1808.974,716.868z"/>
		</g>
	</g>
	<g>
		<g>
			<path style="fill:#FFFFFF;" d="M1925.31,635.166c2.02,0,2.024-3.14,0-3.14C1923.29,632.026,1923.287,635.166,1925.31,635.166
				L1925.31,635.166z"/>
		</g>
	</g>
	<g>
		<g>
			<path style="fill:#FFFFFF;" d="M2017.037,535.081c2.02,0,2.024-3.14,0-3.14C2015.017,531.941,2015.013,535.081,2017.037,535.081
				L2017.037,535.081z"/>
		</g>
	</g>
	<g>
		<g>
			<path style="fill:#FFFFFF;" d="M2137.847,481.974c2.02,0,2.024-3.14,0-3.14C2135.827,478.834,2135.824,481.974,2137.847,481.974
				L2137.847,481.974z"/>
		</g>
	</g>
	<g>
		<g>
			<path style="fill:#FFFFFF;" d="M1940.971,463.591c2.02,0,2.024-3.14,0-3.14C1938.951,460.451,1938.947,463.591,1940.971,463.591
				L1940.971,463.591z"/>
		</g>
	</g>
	<g>
		<g>
			<path style="fill:#FFFFFF;" d="M1994.664,445.208c2.02,0,2.024-3.14,0-3.14C1992.644,442.068,1992.641,445.208,1994.664,445.208
				L1994.664,445.208z"/>
		</g>
	</g>
	<g>
		<g>
			<path style="fill:#FFFFFF;" d="M1880.566,322.655c2.02,0,2.024-3.14,0-3.14C1878.545,319.515,1878.542,322.655,1880.566,322.655
				L1880.566,322.655z"/>
		</g>
	</g>
	<g>
		<g>
			<path style="fill:#FFFFFF;" d="M1784.365,240.953c2.02,0,2.024-3.14,0-3.14C1782.344,237.813,1782.341,240.953,1784.365,240.953
				L1784.365,240.953z"/>
		</g>
	</g>
	<g>
		<g>
			<path style="fill:#FFFFFF;" d="M1717.247,392.102c2.02,0,2.024-3.14,0-3.14C1715.227,388.962,1715.224,392.102,1717.247,392.102
				L1717.247,392.102z"/>
		</g>
	</g>
	<g>
		<g>
			<path style="fill:#FFFFFF;" d="M1632.233,381.889c2.02,0,2.024-3.14,0-3.14C1630.212,378.749,1630.209,381.889,1632.233,381.889
				L1632.233,381.889z"/>
		</g>
	</g>
	<g>
		<g>
			<path style="fill:#FFFFFF;" d="M1437.593,584.102c2.02,0,2.024-3.14,0-3.14C1435.573,580.962,1435.57,584.102,1437.593,584.102
				L1437.593,584.102z"/>
		</g>
	</g>
	<g>
		<g>
			<path style="fill:#FFFFFF;" d="M1334.68,247.08c2.02,0,2.024-3.14,0-3.14C1332.66,243.941,1332.657,247.08,1334.68,247.08
				L1334.68,247.08z"/>
		</g>
	</g>
	<g>
		<g>
			<path style="fill:#FFFFFF;" d="M1596.437,75.506c2.02,0,2.024-3.14,0-3.14C1594.417,72.366,1594.413,75.506,1596.437,75.506
				L1596.437,75.506z"/>
		</g>
	</g>
	<g>
		<g>
			<path style="fill:#FFFFFF;" d="M1544.98,206.229c2.02,0,2.024-3.14,0-3.14C1542.96,203.09,1542.957,206.229,1544.98,206.229
				L1544.98,206.229z"/>
		</g>
	</g>
	<g>
		<g>
			<path style="fill:#FFFFFF;" d="M1471.152,112.272c2.02,0,2.024-3.14,0-3.14C1469.131,109.132,1469.128,112.272,1471.152,112.272
				L1471.152,112.272z"/>
		</g>
	</g>
	<g>
		<g>
			<path style="fill:#FFFFFF;" d="M1717.247,130.655c2.02,0,2.024-3.14,0-3.14C1715.227,127.515,1715.224,130.655,1717.247,130.655
				L1717.247,130.655z"/>
		</g>
	</g>
	<g>
		<g>
			<path style="fill:#FFFFFF;" d="M1679.214,216.442c2.02,0,2.024-3.14,0-3.14C1677.194,213.302,1677.191,216.442,1679.214,216.442
				L1679.214,216.442z"/>
		</g>
	</g>
	<g>
		<g>
			<path style="fill:#FFFFFF;" d="M1891.752,132.698c2.02,0,2.024-3.14,0-3.14C1889.731,129.558,1889.728,132.698,1891.752,132.698
				L1891.752,132.698z"/>
		</g>
	</g>
	<g>
		<g>
			<path style="fill:#FFFFFF;" d="M1949.92,222.57c2.02,0,2.024-3.14,0-3.14C1947.9,219.43,1947.896,222.57,1949.92,222.57
				L1949.92,222.57z"/>
		</g>
	</g>
	<g>
		<g>
			<path style="fill:#FFFFFF;" d="M1842.533,204.187c2.02,0,2.024-3.14,0-3.14C1840.512,201.047,1840.509,204.187,1842.533,204.187
				L1842.533,204.187z"/>
		</g>
	</g>
	<g>
		<g>
			<path style="fill:#FFFFFF;" d="M2133.373,320.612c2.02,0,2.023-3.14,0-3.14C2131.353,317.473,2131.349,320.612,2133.373,320.612
				L2133.373,320.612z"/>
		</g>
	</g>
	<g>
		<g>
			<path style="fill:#FFFFFF;" d="M2088.628,400.272c2.02,0,2.024-3.14,0-3.14C2086.608,397.132,2086.605,400.272,2088.628,400.272
				L2088.628,400.272z"/>
		</g>
	</g>
	<g>
		<g>
			<path style="fill:#FFFFFF;" d="M2034.935,551.421c2.02,0,2.024-3.14,0-3.14C2032.914,548.281,2032.911,551.421,2034.935,551.421
				L2034.935,551.421z"/>
		</g>
	</g>
	<g>
		<g>
			<path style="fill:#FFFFFF;" d="M2003.613,661.719c2.02,0,2.024-3.14,0-3.14C2001.593,658.579,2001.59,661.719,2003.613,661.719
				L2003.613,661.719z"/>
		</g>
	</g>
	<g>
		<g>
			<path style="fill:#FFFFFF;" d="M2184.829,577.974c2.02,0,2.024-3.14,0-3.14C2182.809,574.834,2182.806,577.974,2184.829,577.974
				L2184.829,577.974z"/>
		</g>
	</g>
	<g>
		<g>
			<path style="fill:#FFFFFF;" d="M2343.673,571.846c2.02,0,2.024-3.14,0-3.14C2341.653,568.707,2341.649,571.846,2343.673,571.846
				L2343.673,571.846z"/>
		</g>
	</g>
	<g>
		<g>
			<path style="fill:#FFFFFF;" d="M2301.166,565.719c2.02,0,2.024-3.14,0-3.14C2299.145,562.579,2299.142,565.719,2301.166,565.719
				L2301.166,565.719z"/>
		</g>
	</g>
	<g>
		<g>
			<path style="fill:#FFFFFF;" d="M2321.301,459.506c2.02,0,2.024-3.14,0-3.14C2319.28,456.366,2319.277,459.506,2321.301,459.506
				L2321.301,459.506z"/>
		</g>
	</g>
	<g>
		<g>
			<path style="fill:#FFFFFF;" d="M2256.421,451.336c2.02,0,2.023-3.14,0-3.14C2254.401,448.196,2254.397,451.336,2256.421,451.336
				L2256.421,451.336z"/>
		</g>
	</g>
	<g>
		<g>
			<path style="fill:#FFFFFF;" d="M2341.436,351.251c2.02,0,2.023-3.14,0-3.14C2339.416,348.111,2339.412,351.251,2341.436,351.251
				L2341.436,351.251z"/>
		</g>
	</g>
	<g>
		<g>
			<path style="fill:#FFFFFF;" d="M2166.931,394.144c2.02,0,2.024-3.14,0-3.14C2164.911,391.005,2164.908,394.144,2166.931,394.144
				L2166.931,394.144z"/>
		</g>
	</g>
	<g>
		<g>
			<path style="fill:#FFFFFF;" d="M2247.472,365.549c2.02,0,2.024-3.14,0-3.14C2245.452,362.409,2245.448,365.549,2247.472,365.549
				L2247.472,365.549z"/>
		</g>
	</g>
	<g>
		<g>
			<path style="fill:#FFFFFF;" d="M1983.478,50.995c2.02,0,2.024-3.14,0-3.14C1981.458,47.856,1981.455,50.995,1983.478,50.995
				L1983.478,50.995z"/>
		</g>
	</g>
	<g>
		<g>
			<path style="fill:#FFFFFF;" d="M1283.224,55.08c2.02,0,2.024-3.14,0-3.14C1281.204,51.941,1281.2,55.08,1283.224,55.08
				L1283.224,55.08z"/>
		</g>
	</g>
	<g>
		<g>
			<path style="fill:#FFFFFF;" d="M880.522,73.463c2.02,0,2.024-3.14,0-3.14C878.502,70.324,878.498,73.463,880.522,73.463
				L880.522,73.463z"/>
		</g>
	</g>
	<g>
		<g>
			<path style="fill:#FFFFFF;" d="M1003.57,104.102c2.02,0,2.024-3.14,0-3.14C1001.549,100.962,1001.546,104.102,1003.57,104.102
				L1003.57,104.102z"/>
		</g>
	</g>
	<g>
		<g>
			<path style="fill:#FFFFFF;" d="M996.858,55.08c2.02,0,2.024-3.14,0-3.14C994.838,51.941,994.834,55.08,996.858,55.08
				L996.858,55.08z"/>
		</g>
	</g>
	<g>
		<g>
			<path style="fill:#FFFFFF;" d="M1567.353,140.868c2.02,0,2.024-3.14,0-3.14C1565.333,137.728,1565.329,140.868,1567.353,140.868
				L1567.353,140.868z"/>
		</g>
	</g>
	<g>
		<g>
			<path style="fill:#FFFFFF;" d="M1992.427,134.74c2.02,0,2.024-3.14,0-3.14C1990.407,131.6,1990.404,134.74,1992.427,134.74
				L1992.427,134.74z"/>
		</g>
	</g>
	<g>
		<g>
			<path style="fill:#FFFFFF;" d="M2155.745,257.293c2.02,0,2.023-3.14,0-3.14C2153.725,254.154,2153.722,257.293,2155.745,257.293
				L2155.745,257.293z"/>
		</g>
	</g>
	<g>
		<g>
			<path style="fill:#FFFFFF;" d="M2052.833,193.974c2.02,0,2.024-3.14,0-3.14C2050.812,190.834,2050.809,193.974,2052.833,193.974
				L2052.833,193.974z"/>
		</g>
	</g>
	<g>
		<g>
			<path style="fill:#FFFFFF;" d="M2128.898,124.527c2.02,0,2.024-3.14,0-3.14C2126.878,121.388,2126.875,124.527,2128.898,124.527
				L2128.898,124.527z"/>
		</g>
	</g>
	<g>
		<g>
			<path style="fill:#FFFFFF;" d="M2220.625,42.825c2.02,0,2.024-3.14,0-3.14C2218.605,39.685,2218.602,42.825,2220.625,42.825
				L2220.625,42.825z"/>
		</g>
	</g>
	<g>
		<g>
			<path style="fill:#FFFFFF;" d="M2242.998,91.846c2.02,0,2.023-3.14,0-3.14C2240.977,88.707,2240.974,91.846,2242.998,91.846
				L2242.998,91.846z"/>
		</g>
	</g>
	<g>
		<g>
			<path style="fill:#FFFFFF;" d="M2140.085,206.229c2.02,0,2.024-3.14,0-3.14C2138.064,203.09,2138.061,206.229,2140.085,206.229
				L2140.085,206.229z"/>
		</g>
	</g>
	<g>
		<g>
			<path style="fill:#FFFFFF;" d="M2310.115,228.698c2.02,0,2.024-3.14,0-3.14C2308.094,225.558,2308.091,228.698,2310.115,228.698
				L2310.115,228.698z"/>
		</g>
	</g>
	<g>
		<g>
			<path style="fill:#FFFFFF;" d="M2234.049,157.208c2.02,0,2.023-3.14,0-3.14C2232.028,154.068,2232.025,157.208,2234.049,157.208
				L2234.049,157.208z"/>
		</g>
	</g>
	<g>
		<g>
			<path style="fill:#FFFFFF;" d="M2231.811,214.4c2.02,0,2.024-3.14,0-3.14C2229.791,211.26,2229.788,214.4,2231.811,214.4
				L2231.811,214.4z"/>
		</g>
	</g>
	<g>
		<g>
			<path style="fill:#FFFFFF;" d="M2231.811,300.187c2.02,0,2.024-3.14,0-3.14C2229.791,297.047,2229.788,300.187,2231.811,300.187
				L2231.811,300.187z"/>
		</g>
	</g>
	<g>
		<g>
			<path style="fill:#FFFFFF;" d="M2285.505,296.102c2.02,0,2.024-3.14,0-3.14C2283.485,292.962,2283.481,296.102,2285.505,296.102
				L2285.505,296.102z"/>
		</g>
	</g>
	<g>
		<g>
			<path style="fill:#FFFFFF;" d="M2388.418,71.421c2.02,0,2.023-3.14,0-3.14C2386.397,68.281,2386.394,71.421,2388.418,71.421
				L2388.418,71.421z"/>
		</g>
	</g>
	<g>
		<g>
			<path style="fill:#FFFFFF;" d="M2325.775,124.527c2.02,0,2.023-3.14,0-3.14C2323.755,121.388,2323.751,124.527,2325.775,124.527
				L2325.775,124.527z"/>
		</g>
	</g>
	<g>
		<g>
			<path style="fill:#FFFFFF;" d="M2334.724,198.059c2.02,0,2.023-3.14,0-3.14C2332.704,194.92,2332.7,198.059,2334.724,198.059
				L2334.724,198.059z"/>
		</g>
	</g>
	<g>
		<g>
			<path style="fill:#FFFFFF;" d="M1954.394,735.251c2.02,0,2.024-3.14,0-3.14C1952.374,732.111,1952.371,735.251,1954.394,735.251
				L1954.394,735.251z"/>
		</g>
	</g>
	<g>
		<g>
			<path style="fill:#FFFFFF;" d="M1992.427,772.017c2.02,0,2.024-3.14,0-3.14C1990.407,768.877,1990.404,772.017,1992.427,772.017
				L1992.427,772.017z"/>
		</g>
	</g>
	<g>
		<g>
			<path style="fill:#FFFFFF;" d="M1961.106,796.527c2.02,0,2.024-3.14,0-3.14C1959.086,793.388,1959.082,796.527,1961.106,796.527
				L1961.106,796.527z"/>
		</g>
	</g>
	<g>
		<g>
			<path style="fill:#FFFFFF;" d="M1723.959,835.336c2.02,0,2.024-3.14,0-3.14C1721.939,832.196,1721.936,835.336,1723.959,835.336
				L1723.959,835.336z"/>
		</g>
	</g>
	<g>
		<g>
			<path style="fill:#FFFFFF;" d="M1726.196,575.932c2.02,0,2.024-3.14,0-3.14C1724.176,572.792,1724.173,575.932,1726.196,575.932
				L1726.196,575.932z"/>
		</g>
	</g>
	<g>
		<g>
			<path style="fill:#FFFFFF;" d="M987.909,465.634c2.02,0,2.024-3.14,0-3.14C985.889,462.494,985.886,465.634,987.909,465.634
				L987.909,465.634z"/>
		</g>
	</g>
</g>
<g id="Layer_2">
	<g>
		<g>
			<path style="fill:#172C4B;stroke:#172C4B;stroke-width:1.0466;stroke-miterlimit:10;" d="M1665.593,591
				c-2.191,0-71.195,82-71.195,82l2.87,3.94l-4.513,7.56l2.191,1l5.301-5.84l17.152,9.34l69.005-81v-3
				C1686.404,605,1667.784,591,1665.593,591z M1677.28,612.13l-4.48,4.93l-5.038,5.55l-5.312,5.86l-39.026,43.03l-10.8-7.59
				l-3.439-2.41l38.435-43.18l10.23-11.5l4.425-4.97l3.866-4.35l15.334,10L1677.28,612.13z"/>
			<polygon style="fill:none;stroke:#172C4B;stroke-width:1.0466;stroke-miterlimit:10;" points="1681.475,607.5 1677.28,612.13 
				1672.8,617.06 1667.762,622.61 1662.449,628.47 1623.423,671.5 1612.624,663.91 1609.184,661.5 1647.619,618.32 1657.849,606.82 
				1662.274,601.85 1666.141,597.5 			"/>
			
				<line style="fill:none;stroke:#172C4B;stroke-width:1.0466;stroke-miterlimit:10;" x1="1619.042" y1="668.5" x2="1673.808" y2="605.5"/>
			
				<line style="fill:none;stroke:#172C4B;stroke-width:1.0466;stroke-miterlimit:10;" x1="1614.661" y1="655.5" x2="1627.805" y2="667.5"/>
			
				<line style="fill:none;stroke:#172C4B;stroke-width:1.0466;stroke-miterlimit:10;" x1="1619.042" y1="650.5" x2="1634.377" y2="661.5"/>
			
				<line style="fill:none;stroke:#172C4B;stroke-width:1.0466;stroke-miterlimit:10;" x1="1624.519" y1="645.5" x2="1639.853" y2="655.5"/>
			
				<line style="fill:none;stroke:#172C4B;stroke-width:1.0466;stroke-miterlimit:10;" x1="1626.709" y1="638.5" x2="1644.234" y2="650.5"/>
			
				<line style="fill:none;stroke:#172C4B;stroke-width:1.0466;stroke-miterlimit:10;" x1="1632.186" y1="633.5" x2="1649.711" y2="645.5"/>
			
				<line style="fill:none;stroke:#172C4B;stroke-width:1.0466;stroke-miterlimit:10;" x1="1637.662" y1="628.5" x2="1655.188" y2="640.5"/>
			
				<line style="fill:none;stroke:#172C4B;stroke-width:1.0466;stroke-miterlimit:10;" x1="1642.044" y1="622.5" x2="1659.569" y2="634.5"/>
			
				<line style="fill:none;stroke:#172C4B;stroke-width:1.0466;stroke-miterlimit:10;" x1="1646.425" y1="617.5" x2="1663.95" y2="629.5"/>
			
				<line style="fill:none;stroke:#172C4B;stroke-width:1.0466;stroke-miterlimit:10;" x1="1652.997" y1="612.5" x2="1670.522" y2="624.5"/>
			
				<line style="fill:none;stroke:#172C4B;stroke-width:1.0466;stroke-miterlimit:10;" x1="1657.378" y1="606.5" x2="1674.903" y2="618.5"/>
			
				<line style="fill:none;stroke:#172C4B;stroke-width:1.0466;stroke-miterlimit:10;" x1="1661.759" y1="601.5" x2="1679.284" y2="613.5"/>
			<polyline style="fill:none;stroke:#172C4B;stroke-width:1.0466;stroke-miterlimit:10;" points="1614.661,669.5 1612.47,663.5 
				1669.427,600.5 			"/>
			<polygon style="fill:none;stroke:#172C4B;stroke-width:1.0466;stroke-miterlimit:10;" points="1681.475,607.5 1677.28,612.13 
				1672.8,617.06 1667.762,622.61 1662.449,628.47 1623.423,671.5 1612.624,663.91 1609.184,661.5 1647.619,618.32 1657.849,606.82 
				1662.274,601.85 1666.141,597.5 			"/>
		</g>
		<path style="fill:#172C4B;stroke:#172C4B;stroke-width:1.0466;stroke-miterlimit:10;" d="M1699.822,765.5c0-2-89.816-65-89.816-65
			l-4.316,2.62l-8.281-4.12l-1.095,2l6.397,4.84l-10.23,15.66l88.72,63h3.286C1684.487,784.5,1699.822,767.5,1699.822,765.5z
			 M1676.677,776.17l-5.4-4.09l-6.079-4.6l-6.419-4.85L1611.649,727l8.313-9.86l2.64-3.14l47.296,35.09l12.596,9.34l5.444,4.04
			l4.765,3.53l-10.953,14L1676.677,776.17z"/>
		<polygon style="fill:none;stroke:#172C4B;stroke-width:1.0466;stroke-miterlimit:10;" points="1681.749,780 1676.677,776.17 
			1671.278,772.08 1665.199,767.48 1658.78,762.63 1611.649,727 1619.962,717.14 1622.602,714 1669.898,749.09 1682.494,758.43 
			1687.937,762.47 1692.702,766 		"/>
		
			<line style="fill:none;stroke:#172C4B;stroke-width:1.0466;stroke-miterlimit:10;" x1="1614.935" y1="723" x2="1683.939" y2="773"/>
		
			<line style="fill:none;stroke:#172C4B;stroke-width:1.0466;stroke-miterlimit:10;" x1="1629.174" y1="719" x2="1616.03" y2="731"/>
		
			<line style="fill:none;stroke:#172C4B;stroke-width:1.0466;stroke-miterlimit:10;" x1="1634.65" y1="723" x2="1622.602" y2="737"/>
		
			<line style="fill:none;stroke:#172C4B;stroke-width:1.0466;stroke-miterlimit:10;" x1="1640.127" y1="728" x2="1629.174" y2="742"/>
		
			<line style="fill:none;stroke:#172C4B;stroke-width:1.0466;stroke-miterlimit:10;" x1="1647.794" y1="730" x2="1634.65" y2="746"/>
		
			<line style="fill:none;stroke:#172C4B;stroke-width:1.0466;stroke-miterlimit:10;" x1="1653.271" y1="735" x2="1640.127" y2="751"/>
		
			<line style="fill:none;stroke:#172C4B;stroke-width:1.0466;stroke-miterlimit:10;" x1="1658.747" y1="740" x2="1645.604" y2="756"/>
		
			<line style="fill:none;stroke:#172C4B;stroke-width:1.0466;stroke-miterlimit:10;" x1="1665.319" y1="744" x2="1652.175" y2="760"/>
		
			<line style="fill:none;stroke:#172C4B;stroke-width:1.0466;stroke-miterlimit:10;" x1="1670.796" y1="748" x2="1657.652" y2="764"/>
		
			<line style="fill:none;stroke:#172C4B;stroke-width:1.0466;stroke-miterlimit:10;" x1="1676.272" y1="754" x2="1663.129" y2="770"/>
		<line style="fill:none;stroke:#172C4B;stroke-width:1.0466;stroke-miterlimit:10;" x1="1682.844" y1="758" x2="1669.7" y2="774"/>
		
			<line style="fill:none;stroke:#172C4B;stroke-width:1.0466;stroke-miterlimit:10;" x1="1688.321" y1="762" x2="1675.177" y2="778"/>
		<polyline style="fill:none;stroke:#172C4B;stroke-width:1.0466;stroke-miterlimit:10;" points="1613.839,719 1620.411,717 
			1689.416,769 		"/>
		<polygon style="fill:none;stroke:#172C4B;stroke-width:1.0466;stroke-miterlimit:10;" points="1681.749,780 1676.677,776.17 
			1671.278,772.08 1665.199,767.48 1658.78,762.63 1611.649,727 1619.962,717.14 1622.602,714 1669.898,749.09 1682.494,758.43 
			1687.937,762.47 1692.702,766 		"/>
		<g>
			<path style="fill:#172C4B;stroke:#172C4B;stroke-width:1.0466;stroke-miterlimit:10;" d="M1510.059,795.75
				c2.191,0,71.195-82,71.195-82l-2.87-3.94l4.513-7.56l-2.191-1l-5.302,5.84l-17.152-9.34l-69.005,81v3
				C1489.248,781.75,1507.868,795.75,1510.059,795.75z M1498.372,774.62l4.48-4.93l5.039-5.55l5.312-5.86l39.026-43.03l10.8,7.59
				l3.439,2.41l-38.435,43.18l-10.23,11.5l-4.425,4.97l-3.866,4.35l-15.334-10L1498.372,774.62z"/>
			<polygon style="fill:none;stroke:#172C4B;stroke-width:1.0466;stroke-miterlimit:10;" points="1494.177,779.25 1498.372,774.62 
				1502.851,769.69 1507.89,764.14 1513.202,758.28 1552.228,715.25 1563.028,722.84 1566.467,725.25 1528.033,768.43 
				1517.802,779.93 1513.377,784.9 1509.511,789.25 			"/>
			
				<line style="fill:none;stroke:#172C4B;stroke-width:1.0466;stroke-miterlimit:10;" x1="1556.609" y1="718.25" x2="1501.844" y2="781.25"/>
			
				<line style="fill:none;stroke:#172C4B;stroke-width:1.0466;stroke-miterlimit:10;" x1="1560.991" y1="731.25" x2="1547.847" y2="719.25"/>
			
				<line style="fill:none;stroke:#172C4B;stroke-width:1.0466;stroke-miterlimit:10;" x1="1556.609" y1="736.25" x2="1541.275" y2="725.25"/>
			
				<line style="fill:none;stroke:#172C4B;stroke-width:1.0466;stroke-miterlimit:10;" x1="1551.133" y1="741.25" x2="1535.798" y2="731.25"/>
			
				<line style="fill:none;stroke:#172C4B;stroke-width:1.0466;stroke-miterlimit:10;" x1="1548.942" y1="748.25" x2="1531.417" y2="736.25"/>
			
				<line style="fill:none;stroke:#172C4B;stroke-width:1.0466;stroke-miterlimit:10;" x1="1543.466" y1="753.25" x2="1525.941" y2="741.25"/>
			
				<line style="fill:none;stroke:#172C4B;stroke-width:1.0466;stroke-miterlimit:10;" x1="1537.989" y1="758.25" x2="1520.464" y2="746.25"/>
			
				<line style="fill:none;stroke:#172C4B;stroke-width:1.0466;stroke-miterlimit:10;" x1="1533.608" y1="764.25" x2="1516.083" y2="752.25"/>
			
				<line style="fill:none;stroke:#172C4B;stroke-width:1.0466;stroke-miterlimit:10;" x1="1529.227" y1="769.25" x2="1511.702" y2="757.25"/>
			
				<line style="fill:none;stroke:#172C4B;stroke-width:1.0466;stroke-miterlimit:10;" x1="1522.655" y1="774.25" x2="1505.13" y2="762.25"/>
			
				<line style="fill:none;stroke:#172C4B;stroke-width:1.0466;stroke-miterlimit:10;" x1="1518.273" y1="780.25" x2="1500.748" y2="768.25"/>
			
				<line style="fill:none;stroke:#172C4B;stroke-width:1.0466;stroke-miterlimit:10;" x1="1513.892" y1="785.25" x2="1496.367" y2="773.25"/>
			<polyline style="fill:none;stroke:#172C4B;stroke-width:1.0466;stroke-miterlimit:10;" points="1560.991,717.25 1563.181,723.25 
				1506.225,786.25 			"/>
			<polygon style="fill:none;stroke:#172C4B;stroke-width:1.0466;stroke-miterlimit:10;" points="1494.177,779.25 1498.372,774.62 
				1502.851,769.69 1507.89,764.14 1513.202,758.28 1552.228,715.25 1563.028,722.84 1566.467,725.25 1528.033,768.43 
				1517.802,779.93 1513.377,784.9 1509.511,789.25 			"/>
		</g>
		<g>
			<path style="fill:#172C4B;stroke:#172C4B;stroke-width:1.0466;stroke-miterlimit:10;" d="M1475.282,622.5
				c0,2,89.816,65,89.816,65l4.316-2.62l8.281,4.12l1.095-2l-6.397-4.84l10.23-15.66l-88.72-63h-3.286
				C1490.617,603.5,1475.282,620.5,1475.282,622.5z M1498.426,611.83l5.4,4.09l6.079,4.6l6.418,4.85l47.131,35.63l-8.313,9.86
				l-2.64,3.14l-47.296-35.09l-12.596-9.34l-5.444-4.04l-4.765-3.53l10.953-14L1498.426,611.83z"/>
			<polygon style="fill:none;stroke:#172C4B;stroke-width:1.0466;stroke-miterlimit:10;" points="1493.355,608 1498.426,611.83 
				1503.826,615.92 1509.905,620.52 1516.324,625.37 1563.455,661 1555.142,670.86 1552.502,674 1505.206,638.91 1492.61,629.57 
				1487.167,625.53 1482.402,622 			"/>
			
				<line style="fill:none;stroke:#172C4B;stroke-width:1.0466;stroke-miterlimit:10;" x1="1560.169" y1="665" x2="1491.164" y2="615"/>
			
				<line style="fill:none;stroke:#172C4B;stroke-width:1.0466;stroke-miterlimit:10;" x1="1545.93" y1="669" x2="1559.074" y2="657"/>
			
				<line style="fill:none;stroke:#172C4B;stroke-width:1.0466;stroke-miterlimit:10;" x1="1540.453" y1="665" x2="1552.502" y2="651"/>
			
				<line style="fill:none;stroke:#172C4B;stroke-width:1.0466;stroke-miterlimit:10;" x1="1534.977" y1="660" x2="1545.93" y2="646"/>
			
				<line style="fill:none;stroke:#172C4B;stroke-width:1.0466;stroke-miterlimit:10;" x1="1527.31" y1="658" x2="1540.453" y2="642"/>
			
				<line style="fill:none;stroke:#172C4B;stroke-width:1.0466;stroke-miterlimit:10;" x1="1521.833" y1="653" x2="1534.977" y2="637"/>
			
				<line style="fill:none;stroke:#172C4B;stroke-width:1.0466;stroke-miterlimit:10;" x1="1516.357" y1="648" x2="1529.5" y2="632"/>
			
				<line style="fill:none;stroke:#172C4B;stroke-width:1.0466;stroke-miterlimit:10;" x1="1509.785" y1="644" x2="1522.928" y2="628"/>
			
				<line style="fill:none;stroke:#172C4B;stroke-width:1.0466;stroke-miterlimit:10;" x1="1504.308" y1="640" x2="1517.452" y2="624"/>
			
				<line style="fill:none;stroke:#172C4B;stroke-width:1.0466;stroke-miterlimit:10;" x1="1498.832" y1="634" x2="1511.975" y2="618"/>
			
				<line style="fill:none;stroke:#172C4B;stroke-width:1.0466;stroke-miterlimit:10;" x1="1492.26" y1="630" x2="1505.404" y2="614"/>
			
				<line style="fill:none;stroke:#172C4B;stroke-width:1.0466;stroke-miterlimit:10;" x1="1486.783" y1="626" x2="1499.927" y2="610"/>
			<polyline style="fill:none;stroke:#172C4B;stroke-width:1.0466;stroke-miterlimit:10;" points="1561.264,669 1554.693,671 
				1485.688,619 			"/>
			<polygon style="fill:none;stroke:#172C4B;stroke-width:1.0466;stroke-miterlimit:10;" points="1493.355,608 1498.426,611.83 
				1503.826,615.92 1509.905,620.52 1516.324,625.37 1563.455,661 1555.142,670.86 1552.502,674 1505.206,638.91 1492.61,629.57 
				1487.167,625.53 1482.402,622 			"/>
		</g>
		
			<ellipse style="fill:#172C4B;stroke:#172C4B;stroke-width:1.0466;stroke-miterlimit:10;" cx="1587.826" cy="692.5" rx="12.048" ry="11"/>
	</g>
</g>
<g id="Layer_3">
	
		<rect x="2182.033" y="771" style="fill:#FFC12E;stroke:#172C4B;stroke-width:0.4416;stroke-miterlimit:10;" width="31.764" height="20"/>
	
		<rect x="2198.462" y="809" style="fill:#FFC12E;stroke:#172C4B;stroke-width:0.4416;stroke-miterlimit:10;" width="31.764" height="20"/>
	
		<rect x="1571.944" y="728" style="fill:#FFC12E;stroke:#172C4B;stroke-width:0.4416;stroke-miterlimit:10;" width="31.764" height="20"/>
	
		<rect x="1335.356" y="816" style="fill:#FFC12E;stroke:#172C4B;stroke-width:0.4416;stroke-miterlimit:10;" width="31.764" height="20"/>
	
		<rect x="1428.458" y="815" style="fill:#FFC12E;stroke:#172C4B;stroke-width:0.4416;stroke-miterlimit:10;" width="31.764" height="20"/>
	
		<rect x="1096.578" y="799.207" style="fill:#FFC12E;stroke:#172C4B;stroke-width:0.3046;stroke-miterlimit:10;" width="21.906" height="13.793"/>
	
		<rect x="1840.295" y="890.207" style="fill:#FFC12E;stroke:#172C4B;stroke-width:0.3046;stroke-miterlimit:10;" width="21.906" height="13.793"/>
	
		<rect x="1096.578" y="823.207" style="fill:#FFC12E;stroke:#172C4B;stroke-width:0.3046;stroke-miterlimit:10;" width="21.906" height="13.793"/>
	
		<rect x="932.281" y="854.207" style="fill:#FFC12E;stroke:#172C4B;stroke-width:0.3046;stroke-miterlimit:10;" width="21.906" height="13.793"/>
	
		<rect x="1000.191" y="851.207" style="fill:#FFC12E;stroke:#172C4B;stroke-width:0.3046;stroke-miterlimit:10;" width="21.906" height="13.793"/>
	
		<rect x="489.775" y="966.207" style="fill:#FFC12E;stroke:#172C4B;stroke-width:0.3046;stroke-miterlimit:10;" width="21.906" height="13.793"/>
	
		<rect x="1567.563" y="791" style="fill:#FFC12E;stroke:#172C4B;stroke-width:0.4416;stroke-miterlimit:10;" width="31.764" height="20"/>
	<polygon style="fill:#FFC12E;stroke:#172C4B;stroke-width:0.4416;stroke-miterlimit:10;" points="1322.537,629.5 1319.652,634.5 
		1351.385,634.5 1349.462,629.5 	"/>
	<polygon style="opacity:0.3;fill:#FFC12E;stroke:#172C4B;stroke-width:0.7084;stroke-miterlimit:10;" points="1320.133,635 
		1298.978,846 1379.752,846 1351.866,635 	"/>
	<g>
		<polygon style="fill:#FFC12E;stroke:#172C4B;stroke-width:0.2208;stroke-miterlimit:10;" points="1821.362,814.25 1819.92,816.75 
			1835.786,816.75 1834.825,814.25 		"/>
		<polygon style="opacity:0.3;fill:#FFC12E;stroke:#172C4B;stroke-width:0.3542;stroke-miterlimit:10;" points="1820.161,817 
			1809.583,922.5 1849.97,922.5 1836.027,817 		"/>
	</g>
	
		<rect x="228.295" y="905.207" style="fill:#FFC12E;stroke:#172C4B;stroke-width:0.3046;stroke-miterlimit:10;" width="21.906" height="13.793"/>
	<g>
		<polygon style="fill:#FFC12E;stroke:#172C4B;stroke-width:0.2208;stroke-miterlimit:10;" points="138.362,878.25 136.92,880.75 
			152.786,880.75 151.825,878.25 		"/>
		<polygon style="opacity:0.3;fill:#FFC12E;stroke:#172C4B;stroke-width:0.3542;stroke-miterlimit:10;" points="137.16,881 
			126.583,986.5 166.97,986.5 153.027,881 		"/>
	</g>
	<g>
		<polygon style="fill:#FFC12E;stroke:#172C4B;stroke-width:0.2208;stroke-miterlimit:10;" points="464.557,868.25 463.115,870.75 
			478.981,870.75 478.02,868.25 		"/>
		<polygon style="opacity:0.3;fill:#FFC12E;stroke:#172C4B;stroke-width:0.3542;stroke-miterlimit:10;" points="463.355,871 
			452.778,976.5 493.165,976.5 479.222,871 		"/>
	</g>
	<g>
		<polygon style="fill:#FFC12E;stroke:#172C4B;stroke-width:0.3447;stroke-miterlimit:10;" points="847.15,731 844.898,734.903 
			869.669,734.903 868.167,731 		"/>
		<polygon style="opacity:0.3;fill:#FFC12E;stroke:#172C4B;stroke-width:0.553;stroke-miterlimit:10;" points="845.274,735.293 
			828.76,900 891.812,900 870.044,735.293 		"/>
	</g>
	<g>
		<polygon style="fill:#FFC12E;stroke:#172C4B;stroke-width:0.3447;stroke-miterlimit:10;" points="2308.769,710 2306.517,713.903 
			2331.287,713.903 2329.786,710 		"/>
		<polygon style="opacity:0.3;fill:#FFC12E;stroke:#172C4B;stroke-width:0.553;stroke-miterlimit:10;" points="2306.892,714.293 
			2290.379,879 2353.431,879 2331.663,714.293 		"/>
	</g>
</g>
</svg>
